<svg width="50" height="100" viewBox="0 0 214 170" fill="none" xmlns="http://www.w3.org/2000/svg">
<mask id="mask0_130_77" style="mask-type:luminance" maskUnits="userSpaceOnUse" x="153" y="0" width="8" height="156">
<path d="M153.959 0H160.626V155.854H153.959V0Z" fill="white"/>
</mask>
<g mask="url(#mask0_130_77)">
<path d="M159.792 155.76H154.303V0.00524902H159.792V155.76Z" fill="#A0521C"/>
</g>
<path d="M190.208 166.052C190.26 165.536 190.286 165.016 190.286 164.49C190.286 155.807 183.266 148.766 174.599 148.766H139.484C130.823 148.766 123.797 155.807 123.797 164.49C123.797 165.016 123.823 165.536 123.875 166.052H190.208Z" fill="#D17F25"/>
<path d="M189.214 158.917C177.625 159.438 165.906 158.13 154.677 155.24C148.682 153.693 142.651 151.781 137.12 148.943C129.578 150.089 123.797 156.615 123.797 164.49C123.797 165.016 123.823 165.537 123.875 166.052H190.208C190.26 165.537 190.286 165.016 190.286 164.49C190.286 162.526 189.927 160.646 189.271 158.917C189.25 158.917 189.234 158.917 189.214 158.917Z" fill="#B8661C"/>
<mask id="mask1_130_77" style="mask-type:luminance" maskUnits="userSpaceOnUse" x="113" y="162" width="88" height="9">
<path d="M113.959 162.521H200.626V170H113.959V162.521Z" fill="white"/>
</mask>
<g mask="url(#mask1_130_77)">
<path d="M199.641 170.011H114.449V163.62H199.641V170.011Z" fill="#D17F25"/>
</g>
<mask id="mask2_130_77" style="mask-type:luminance" maskUnits="userSpaceOnUse" x="113" y="166" width="88" height="5">
<path d="M113.959 166.521H200.626V170H113.959V166.521Z" fill="white"/>
</mask>
<g mask="url(#mask2_130_77)">
<path d="M114.449 166.537V170.011H199.641V166.537H114.449Z" fill="#B8661C"/>
</g>
<path d="M157.042 141.74C138.964 141.74 121.964 134.682 109.178 121.87C96.3913 109.052 89.3496 92.0158 89.3496 73.8908C89.3496 55.7658 96.3913 38.7241 109.178 25.9064C121.964 13.0939 138.964 6.03662 157.042 6.03662C161.568 6.03662 166.094 6.48454 170.49 7.37516C171.766 7.63037 172.589 8.87516 172.329 10.1512C172.074 11.4272 170.834 12.2554 169.563 11.995C165.469 11.172 161.256 10.7502 157.042 10.7502C122.313 10.7502 94.0527 39.0731 94.0527 73.8908C94.0527 108.703 122.313 137.026 157.042 137.026C171.745 137.026 186.053 131.844 197.329 122.427C198.329 121.594 199.813 121.729 200.641 122.729C201.475 123.735 201.339 125.219 200.339 126.052C188.219 136.172 172.844 141.74 157.042 141.74Z" fill="#B8661C"/>
<path d="M213.854 73.8906C213.854 105.344 188.417 130.839 157.032 130.839C125.657 130.839 100.214 105.344 100.214 73.8906C100.214 42.4323 125.657 16.9375 157.032 16.9375C188.417 16.9375 213.854 42.4323 213.854 73.8906Z" fill="#52BED9"/>
<path d="M185.073 24.3386C188.823 26.6511 191.308 28.1772 195.599 32.0522C199.401 35.8386 199.709 36.1459 201.938 38.9636C205.177 43.4845 205.375 43.7553 207.016 46.7397C209.558 51.8959 209.657 52.099 210.761 55.2501C212.448 60.8542 212.516 61.073 213.089 64.3803L213.276 65.6251C212.672 61.8022 211.969 59.8282 211.485 58.8438C211.594 62.1876 213.297 65.1772 213.62 68.474C213.709 70.1303 213.865 72.3334 213.87 73.9897C213.62 80.0157 213.604 80.3751 212.943 84.172C211.641 90.0105 211.615 90.1251 210.495 93.2605C208.334 98.5938 208.25 98.8022 206.625 101.724C203.672 106.563 203.558 106.75 201.443 109.438C197.953 113.49 197.672 113.818 194.995 116.276L193.172 117.844C200.229 111.5 205.177 101.729 205.224 101.63C206.886 98.323 205.334 94.6042 206.526 91.2345C206.495 91.2345 202.75 91.7084 202.745 91.7136C200.839 94.2813 196.334 94.3855 195.698 93.8803C195.479 90.3595 192.026 89.099 190.532 86.4688C191.052 85.6876 191.901 85.1667 192.271 84.2709C192.073 83.9845 191.646 83.7136 191.313 83.6042C191.339 82.9897 191.37 82.2865 192.802 81.1615C192.75 80.2188 192.75 80.2188 190.797 78.4845C190.849 77.3751 190.693 77.2084 190.313 76.8074C190.422 75.9897 193.907 68.2292 193.933 68.2032C194.203 67.9532 194.563 67.547 194.631 67.1824C194.912 65.724 193.948 64.4167 194.136 62.9688C194.328 61.474 195.703 60.4324 195.719 58.8647C196.365 58.4428 196.365 58.4428 197.495 59.5417C198.521 58.5522 201.537 54.4115 201.552 54.3803C201.854 54.297 202.266 54.2032 202.573 54.1459C202.61 54.1251 202.61 54.1251 202.61 54.1251C202.625 54.1147 202.625 54.1147 202.625 54.1147C203.422 55.1407 202.844 56.6511 203.854 57.5938L208.495 59.5938C208.354 58.547 207.433 57.8022 207.401 56.7136C207.61 56.5001 207.875 56.1928 208.058 55.9532C208.443 56.2397 208.443 56.2397 209.677 57.8022C209.729 57.5678 209.729 57.5678 209.506 55.4324C209.651 55.5157 209.849 55.6251 210 55.7136C209.99 54.1042 207.818 49.8074 207.453 49.2032C207.61 49.8386 207.86 50.4428 208.037 51.073C207.787 50.8907 207.521 50.5522 207.375 50.2761C207.261 50.3699 207.099 50.4949 206.979 50.5886C205.881 49.7709 205.881 49.7709 205.354 48.3386C204.714 48.0574 204.693 48.047 204.047 47.2709C204.047 49.1563 204.334 49.3022 205.698 50.0261C206.297 52.3074 206.297 52.3074 206.386 52.5105C205.339 52.2761 205.339 52.2761 202.219 47.2345C201.407 47.0626 201.407 47.0626 199.974 45.7865C199.813 45.8178 199.589 45.8647 199.422 45.9011C199.151 45.672 198.792 45.3751 198.516 45.1563C197.969 48.073 202.094 47.474 203.099 49.4688C203.032 49.6199 202.948 49.823 202.881 49.974C203.625 51.0574 203.756 51.2501 203.995 52.1876C203.912 52.3126 203.802 52.4792 203.719 52.599C198.282 47.422 198.282 47.422 197.714 47.3438C197.724 47.7501 197.724 47.7501 197.901 49.0261C197.563 49.0105 197.115 48.9115 196.808 48.7709C196.745 48.9167 196.662 49.1042 196.604 49.2449C198.016 51.1407 197.849 56.0001 197.834 56.0365C197.391 57.5522 197.042 58.7449 193.927 58.3542C192.287 58.1511 190.146 50.1876 190.162 50.1095C190.292 50.0417 190.464 49.9428 190.594 49.8699C190.818 50.1303 191.146 50.4584 191.401 50.6876C191.834 50.5782 193.084 49.8907 193.537 49.1667C192.74 47.8803 191.453 45.547 191.443 45.5365C189.104 45.172 189.104 45.172 188.407 44.323C189.266 43.4376 189.625 43.4428 190.214 43.4584C190.313 43.1615 190.344 42.7292 190.276 42.4272C190.422 42.3803 190.604 42.323 190.745 42.2761C190.334 41.297 190.375 40.1511 189.636 39.3022C189.943 38.6199 189.969 38.5678 189.469 37.7136C189.62 37.7553 189.823 37.8074 189.974 37.849C189.985 37.6876 190 37.4688 190.011 37.3074C187.167 34.8074 187.167 34.8074 186.969 33.7188C188.677 34.6355 189.995 36.2084 191.969 36.6772C191.912 36.3126 191.761 35.8438 191.599 35.5105C191.771 35.4845 191.995 35.4636 192.162 35.4428C192.12 35.1459 192.12 35.1459 188.427 31.3438C188.709 31.4845 189.073 31.6824 189.344 31.8334C188.969 30.8542 187.776 30.7657 187.266 29.9272C187.37 29.823 187.516 29.6824 187.62 29.5782C187.146 29.0574 187.146 29.0574 186.198 28.5209C186.302 28.8178 186.511 29.1824 186.714 29.422C186.667 29.5626 186.599 29.7501 186.552 29.8907C183.552 29.2032 182.203 26.0365 179.36 25.1147C181.901 29.948 188.37 30.5782 190.646 35.698C188.532 34.9792 187.151 33.1928 185.323 32.0522C185.854 34.0209 185.854 34.0209 185.844 34.047C185.511 33.9897 185.084 33.7605 184.839 33.5365L172.756 23.2917C172.901 23.2605 173.094 23.2136 173.24 23.1772C172.938 23.0053 172.532 22.797 172.214 22.6667C172.552 22.7032 173.006 22.7865 173.334 22.8855C173.078 22.724 173.078 22.724 171.792 22.0886C171.813 22.047 171.844 21.9949 171.865 21.9584C171.729 21.9011 171.542 21.823 171.401 21.7657C171.552 21.797 171.756 21.8386 171.907 21.8699C171.787 21.7865 171.62 21.6772 171.5 21.599C172.198 21.7032 172.412 21.7345 174.375 22.3438C173.745 22.073 173.745 22.073 172.766 21.7136C173.37 21.8647 173.37 21.8647 174.552 22.2188C174.422 22.1407 174.256 22.0417 174.131 21.9688C177.532 21.9324 179.797 24.6772 182.839 25.5313C182.568 25.1251 182.568 25.1251 180.974 24.474C181.157 24.4845 181.407 24.4897 181.594 24.4949C180.808 23.9897 180.808 23.9897 179.037 22.9688C179.209 23.0105 179.433 23.0678 179.604 23.1095C178.198 22.3699 176.641 22.0209 175.157 21.474C175.589 21.5886 175.589 21.5886 179.026 22.6824C177.401 21.948 175.073 20.9063 175.073 20.9063C175.235 20.9324 175.235 20.9324 176.735 21.3126C174.469 20.2553 174.469 20.2553 171.87 19.8386C172.032 19.8542 172.245 19.8699 172.407 19.8803C172.271 19.8178 172.094 19.7292 171.959 19.6667C172.349 19.6824 172.735 19.8178 173.136 19.7657C177.391 20.698 181.396 22.2501 185.073 24.3386Z" fill="#2F64A2"/>
<path d="M134.271 21.6981C134.282 21.6981 134.292 21.6877 134.303 21.6877C134.298 21.6929 134.287 21.6981 134.277 21.7033C134.298 21.6981 134.834 21.4637 134.912 21.4272C134.896 21.4272 134.876 21.4377 134.86 21.4481C134.865 21.4429 134.876 21.4377 134.876 21.4377L134.271 21.6981Z" fill="#2F64A2"/>
<path d="M131.995 22.7606C132.011 22.7554 132.032 22.745 132.048 22.7397C132.053 22.7345 132.058 22.7345 132.063 22.7293C132.079 22.7241 132.089 22.7189 132.105 22.7085C132.126 22.7033 132.146 22.6877 132.167 22.6825C132.199 22.6668 132.219 22.6564 132.245 22.6408C132.277 22.6304 132.303 22.6147 132.334 22.6043C132.36 22.5887 132.391 22.5783 132.417 22.5679C132.443 22.5522 132.469 22.5418 132.495 22.5314C132.516 22.521 132.537 22.5106 132.558 22.5002C132.933 22.3283 133.298 22.1408 133.678 21.9741C133.667 21.9793 133.657 21.9793 133.652 21.9845C133.813 21.896 133.98 21.8283 134.146 21.7554L131.943 22.7866C131.959 22.7814 131.98 22.771 131.995 22.7606Z" fill="#2F64A2"/>
<path d="M123.25 28.1095C122.839 28.3908 122.839 28.3908 121.729 29.5783C121.964 29.5366 122.11 29.3491 122.302 29.2345C122.25 29.3856 122.104 29.4689 122.047 29.6147C122.219 29.6252 123.386 28.5314 123.417 28.4481C123.328 28.4533 123.328 28.4533 122.933 28.6929C123.021 28.5887 123.131 28.5106 123.229 28.4116C123.177 28.422 123.115 28.4377 123.068 28.4637C123.25 28.1772 123.584 28.0679 123.797 27.8179C123.75 27.8283 123.688 27.8543 123.651 27.8752C123.896 27.6356 124.688 27.1043 124.698 27.0991C124.563 27.2189 124.412 27.3231 124.276 27.4429C125.151 27.0262 125.839 26.3335 126.651 25.8335C126.636 25.87 126.604 25.9168 126.584 25.9481C126.667 25.9429 126.667 25.9429 128.573 24.7502C128.526 24.7762 128.479 24.797 128.433 24.8231C129.203 24.1772 130.198 23.9168 130.985 23.3022C130.865 23.3491 130.745 23.4116 130.625 23.4741C130.709 23.422 130.792 23.3752 130.881 23.3283C129.495 24.1043 127.657 25.1512 126.308 25.9897L123.25 28.1095Z" fill="#2F64A2"/>
<path d="M154.907 129.667C154.979 129.635 155.047 129.604 155.115 129.568C154.995 129.552 154.891 129.62 154.782 129.63C154.854 129.578 154.938 129.547 155.011 129.5C154.714 129.526 154.459 129.693 154.177 129.771C154.271 129.719 154.386 129.693 154.474 129.625C154.36 129.625 153.99 129.625 153.922 129.823C153.818 129.854 152.948 130.026 152.761 130.047C153.089 129.922 153.443 129.911 153.766 129.781C153.745 129.781 153.719 129.781 153.703 129.786C153.537 129.802 152.131 130.026 152.12 130.026C151.219 130.193 150.297 129.979 149.396 130.146C149.729 130.406 150.094 130.167 150.443 130.203C149.844 130.333 149.266 130.12 148.672 130.12C148.735 130.151 148.735 130.151 148.828 130.172C148.552 130.177 148.073 130.109 147.724 130.062C147.74 130.057 147.756 130.057 147.766 130.057C147.636 130.026 147.151 129.974 147.151 129.974C147.229 129.995 147.313 130.01 147.391 130.026C147.323 130.016 147.25 130.005 147.183 129.995C147.657 130.073 148.282 130.182 148.756 130.25L149 130.286C149.891 130.406 150.896 130.547 151.36 130.448C151.302 130.432 151.235 130.438 151.177 130.406C154.115 130.01 154.36 129.901 154.907 129.667Z" fill="#2F64A2"/>
<path d="M198.834 109.271C198.87 109.24 198.912 109.203 198.949 109.167C198.907 109.203 198.87 109.234 198.834 109.271Z" fill="#2F64A2"/>
<path d="M161.136 113.818C160.928 114.651 160.928 114.651 158.506 116.375C158.599 116.521 158.719 116.714 158.808 116.854C158.766 117.037 158.704 117.276 158.657 117.458C158.282 117.573 157.797 117.771 157.448 117.953C157.511 118.302 157.724 118.755 157.943 119.037C155.428 125.229 155.428 125.229 152.297 124.75C151.688 125.734 151.688 125.734 150.87 125.813C150.912 126.193 150.985 126.703 151.058 127.083C150.089 127.958 150.089 127.958 149.855 128.516C149.672 128.547 149.433 128.589 149.256 128.625C149.188 128.943 148.954 129.344 148.719 129.568C148.521 129.552 148.266 129.531 148.068 129.516C148.23 129.604 148.454 129.729 148.615 129.818C148.428 129.818 148.172 129.818 147.99 129.813C149.381 130.281 149.381 130.281 149.594 130.359C149.412 130.339 149.178 130.307 149.001 130.287L148.756 130.25C148.287 130.172 147.657 130.073 147.183 129.995C147.016 129.964 146.797 129.917 146.636 129.885C146.287 129.813 146.287 129.813 146.287 129.813H146.282C146.282 129.813 146.282 129.813 146.282 129.807C142.573 128.995 140.23 126.599 138.516 124.854C138.553 124.021 138.027 123.214 136.948 122.458C137.058 122.302 137.198 122.099 137.303 121.943C137.073 121.662 136.735 121.313 136.454 121.078C136.334 119.599 133.318 118.531 133.292 118.526C133.245 118.344 133.172 118.104 133.126 117.922C131.402 117.297 130.448 116.953 125.376 110.146C125.412 109.958 125.464 109.708 125.506 109.521C125.376 109.412 125.204 109.271 125.073 109.162C124.917 109.219 124.709 109.297 124.547 109.354C123.615 108.609 123.62 108.552 123.844 107.141C124.172 106.979 124.579 106.693 124.855 106.448C124.146 106.146 123.303 106.234 122.678 105.688C122.808 105.573 122.99 105.417 123.12 105.302C122.823 104.162 122.823 104.162 122.756 102.969C122.933 102.932 123.178 102.875 123.355 102.839C123.349 102.651 123.349 102.406 123.344 102.219C123.516 102.26 123.745 102.323 123.917 102.365C123.943 101.969 123.886 101.427 123.745 101.052C123.917 100.969 124.141 100.854 124.308 100.771C124.292 100.422 124.068 99.974 123.834 99.7188C124.011 99.3855 124.36 99 124.662 98.7761C124.334 98.0313 124.198 97.724 122.443 95.7865C122.365 95.9375 122.261 96.1407 122.183 96.2917C122.251 96.4636 122.334 96.6928 122.402 96.8646C122.24 96.9271 122.032 97.0105 121.87 97.073C121.287 96.7553 120.995 96.1407 120.495 95.7344C120.329 95.7813 120.105 95.8386 119.938 95.8855C119.766 95.7813 119.537 95.6407 119.365 95.5417C119.417 95.1459 119.464 94.6146 119.459 94.2188C119.329 94.0938 119.152 93.9219 119.021 93.7917C117.813 93.8386 117.813 93.8386 117.355 93.4375C117.662 93.2188 118.094 92.948 118.438 92.7813C118.485 92.5365 118.547 92.2084 118.594 91.9636C118.308 92.1615 117.99 92.5209 117.823 92.823C116.443 92.2136 116.438 92.1198 116.282 89.573C115.131 89.0938 115.131 89.0938 114.053 88.7813C113.547 87.474 112.839 86.2657 112.251 85C112.084 84.9896 111.86 84.974 111.688 84.9688C111.558 85.2709 111.256 85.6303 110.98 85.8125C110.579 85.625 110.579 85.625 108.094 83.0573C108.657 80.7188 106.553 79.2969 106.131 77.2969C105.683 75.1928 106.032 73.0469 105.751 70.9323C105.402 68.2448 105.839 65.5209 105.448 62.8334C104.751 63.9219 104.823 72.6719 104.995 74.1667C103.61 73.224 103.714 66.4688 103.724 66.4115C103.823 66.5521 103.954 66.7448 104.058 66.8907C104.599 65.5105 105.037 58.9115 105.037 58.8438C104.896 58.7136 104.704 58.5313 104.563 58.4011C105.12 54.0417 105.12 54.0417 111.943 42.2709C112.105 42.25 112.329 42.2292 112.49 42.2136C123.907 27.9323 123.907 27.9323 124.938 27.1771C124.349 27.5209 123.771 27.8959 123.162 28.2136C123.974 27.5938 123.974 27.5938 126.318 26.1407C125.667 26.4584 125.303 26.6303 123.251 28.1094L126.308 25.9896C127.667 25.1667 129.485 24.0834 130.881 23.3282C131.219 23.1563 131.678 22.9323 132.021 22.7605C132.001 22.7709 131.964 22.7813 131.943 22.7865L134.146 21.7553L134.271 21.698L134.876 21.4375C134.563 21.5886 134.146 21.7865 133.829 21.9375C138.011 20.1615 138.011 20.1615 139.636 20.1823C137.126 21.5886 137.126 21.5886 134.36 23.3282C135.001 23.2865 135.49 22.8334 136.089 22.6928C135.954 22.8073 135.766 22.9532 135.631 23.0625C135.839 23.0209 136.126 22.9688 136.334 22.9323C136.178 23.0678 135.959 23.2448 135.803 23.3855C136.193 23.3282 136.704 23.1928 137.068 23.0469C136.745 23.3021 136.287 23.6146 135.922 23.8178C136.099 23.7657 136.334 23.698 136.511 23.6459C135.829 24.0834 135.511 24.875 134.844 25.3282C134.849 25.5 134.855 25.7344 134.855 25.9063C134.693 26 134.474 26.1198 134.308 26.2136C134.454 26.3125 134.636 26.448 134.777 26.5521C134.672 26.7032 134.532 26.9011 134.428 27.0469C134.907 27.0053 134.907 27.0053 137.329 26.0625C136.349 26.1719 136.292 26.1615 135.521 26.0053C136.688 24.2032 136.688 24.2032 140.87 22.6928C139.834 22.8021 138.886 23.3386 137.829 23.3698C139.266 22.3855 142.459 21.073 143.751 21.349C142.631 22.0313 141.245 23.2657 141.24 23.2761C141.589 23.1667 142.053 23.0209 142.396 22.9011C141.849 23.2448 141.282 23.5573 140.724 23.8959C141.594 23.6146 142.412 23.1823 143.292 22.9219C143.256 22.9584 137.698 26.6928 136.287 26.7344C136.146 27.0417 135.974 27.4584 135.86 27.7761C136.974 27.75 136.974 27.75 137.61 27.5834C137.844 27.073 137.844 27.073 139.542 26.2084C139.402 26.8959 139.402 26.8959 138.355 27.5678C141.672 27.5469 143.073 24.1511 145.902 23.2657C146.032 23.3698 146.204 23.5105 146.334 23.6146C141.662 26.0938 141.662 26.0938 140.547 27.3125C140.714 27.3073 140.938 27.3021 141.11 27.2969C141.042 27.5417 141.042 27.5417 139.558 29.0261C139.558 29.1928 139.568 29.4167 139.568 29.5834C139.599 29.5573 142.391 27.25 142.396 26.2709C145.079 23.7969 146.896 23.8438 146.969 23.849C146.813 24.0053 146.813 24.0053 145.323 24.8542C145.933 24.7448 146.469 24.4323 147.047 24.2396C147.172 24.3594 147.344 24.5157 147.469 24.6303C147.662 24.5625 147.912 24.474 148.105 24.4063C147.896 24.9844 147.896 24.9844 147.381 26.0261C147.469 26.1667 147.584 26.3594 147.672 26.5053C147.594 26.6667 147.49 26.8855 147.407 27.0469C147.563 27.1094 147.766 27.1928 147.922 27.25C147.735 27.5417 147.428 27.9063 147.157 28.125C147.329 28.1459 147.563 28.1719 147.74 28.1928C146.589 29.1719 146.589 29.1719 146.464 29.5417C147.219 30.0782 147.303 30.2605 147.537 30.948C147.876 31.0313 148.323 31.1459 148.662 31.2396C147.964 32.1303 146.995 32.7657 146.313 33.6771C146.219 33.5521 146.219 33.5521 145.511 31.8907C145.334 31.9584 145.099 32.0469 144.917 32.1146C145.438 34.323 145.438 34.323 144.349 35.4844C144.079 35.2917 143.792 34.9115 143.688 34.599C143.459 35.375 143.985 36.1042 143.849 36.875C143.667 36.9219 143.428 36.9896 143.245 37.0365C142.959 36.8125 142.568 36.5157 142.266 36.3073C142.204 35.75 142.204 35.75 141.448 34.75C141.631 33.75 141.547 33.6407 141.126 33.0938C140.787 33.0573 140.344 32.9896 140.006 32.9219C140.23 32.5678 140.652 32.1667 141.011 31.9636C141.12 32.1042 141.266 32.2969 141.376 32.4428C141.61 32.3386 141.61 32.3386 143.886 30.4532C143.891 30.1198 144.011 29.6771 144.178 29.3959C144.016 29.3438 143.808 29.2761 143.646 29.2292C144.136 28.2969 144.157 28.2709 144.584 27.599C144.235 27.5886 143.766 27.5417 143.428 27.4688C141.48 29.9948 141.48 29.9948 138.454 30.9792C138.417 32.4428 138.626 33.4219 138.626 33.4271C138.527 33.6042 138.402 33.8386 138.303 34.0157C138.136 34.0573 137.912 34.1146 137.74 34.1563C137.678 33.9792 137.594 33.7396 137.527 33.5625C136.896 33.6042 136.355 33.9844 135.719 34.0313C135.792 33.875 135.891 33.6615 135.959 33.5053C135.813 33.4219 135.62 33.3125 135.469 33.2344C136.167 32.5 137.084 32.0573 137.844 31.4063C136.813 31.4636 136.37 32.7761 135.245 32.6355C133.813 33.7865 133.813 33.7865 133.12 33.5782C129.948 35.5886 129.948 35.5886 128.99 36.4896C129.136 36.5678 129.334 36.6719 129.485 36.75C129.412 37.9167 129.386 37.9375 128.714 38.4375C128.855 38.7292 129.209 39.0417 129.511 39.1667C129.672 39.7605 129.672 39.7605 130.313 40.8021C130.23 40.9584 130.115 41.1667 130.032 41.323C130.136 41.4844 130.277 41.7032 130.381 41.8594C130.719 41.9167 131.167 42 131.501 42.073C131.422 42.4688 131.193 42.9792 130.948 43.3021C131.198 43.9688 131.198 43.9688 130.105 45.2292C130.24 45.5261 130.24 45.5261 130.558 47.0886C130.719 47.1355 130.933 47.1928 131.094 47.2396C131.589 46.3073 131.933 45.2865 132.584 44.4323C131.803 42.5782 135.459 40.9375 135.495 40.9219C135.521 40.75 135.563 40.5209 135.589 40.3438C135.459 40.1875 135.271 39.9792 135.136 39.823L139.011 34.7761C139.735 35.9167 140.172 35.8386 140.839 35.7292C140.829 36.0886 140.823 36.5625 140.829 36.9219C141.172 36.8698 141.62 36.6875 141.912 36.4948C141.511 37.6198 140.396 38.448 140.553 39.8021C142.047 40.1823 142.396 38.3282 143.641 38.2084C143.803 39.0261 143.698 43.099 143.48 44.5261C145.766 45.4063 145.766 45.4063 145.063 50.9948C145.527 51.1615 145.527 51.1615 146.803 51.0157C146.839 51.3438 146.735 51.8021 146.563 52.0782C148.376 56.6719 145.11 55.2188 145.079 55.198C144.933 55.1146 144.813 54.9115 144.698 54.7865C144.808 54.6094 144.959 54.375 145.068 54.198C144.917 54.1198 144.719 54.0105 144.568 53.9375C144.407 53.9948 144.188 54.0782 144.027 54.1407C143.412 53.8334 143.412 53.8334 142.282 53.849C142.162 53.7136 142.006 53.5313 141.886 53.3907C143.959 51.6094 144.308 48.8855 144.303 48.8646C143.547 49.2657 143.063 50.0313 142.277 50.3907C141.943 50.2188 141.537 49.9011 141.313 49.6094C141.219 49.75 141.094 49.9375 141.001 50.0834C141.167 50.3907 141.36 50.8178 141.495 51.1407C141.386 51.2709 141.24 51.448 141.131 51.573C136.532 50.3907 136.532 50.3907 136.407 51.323C138.948 51.6459 138.948 51.6459 139.396 51.9532C138.99 52.7292 137.99 53.0834 137.891 54.0678C138.157 54.2969 138.636 54.4584 138.985 54.4792C139.204 54.7709 139.589 55.1042 139.917 55.2553C140.813 54.1303 140.813 54.1303 141.303 54.0157C142.011 55.0365 142.011 55.0365 141.938 55.6615C140.688 56.1823 135.344 58.0938 135.344 58.0938C135.808 57.0938 136.829 56.6407 137.537 55.8803C137.37 55.8334 137.152 55.7657 136.985 55.7136C135.501 56.849 133.459 56.8282 132.037 58.099C132.209 60.6928 132.209 60.6928 130.506 60.1771C129.646 61.2188 129.553 62.7605 128.308 63.5521C128.178 63.4323 127.995 63.2709 127.86 63.1563C127.876 62.7813 127.823 62.2761 127.698 61.9271C127.355 62.1303 126.938 62.4688 126.662 62.7605C126.766 63.5886 126.803 63.8386 127.704 64.3907C127.714 64.7396 127.714 64.7396 122.058 70.9115C120.188 72.9532 122.032 74.0573 124.823 75.724C124.839 76.1303 124.766 76.6719 124.662 77.0678C124.605 77.0573 123.23 76.8282 122.704 75.6667C122.547 75.7605 122.349 75.8803 122.198 75.974C122.287 77.1355 122.287 77.1355 121.922 77.7657C121.568 77.7136 121.11 77.5261 120.818 77.323C120.391 73.5157 120.089 70.7605 116.652 69.7761C116.49 70.4948 116.443 70.7084 117.157 71.3646C117.001 71.698 116.667 72.1146 116.344 72.3021C115.152 71.6355 115.152 71.6355 114.662 69.125C114.469 69.0625 114.469 69.0625 112.87 69.1042L109.698 76.2605L112.719 82.7448C112.829 82.375 113.016 81.8959 113.198 81.5573C113.365 81.5365 113.584 81.5157 113.756 81.5C113.98 80.8386 113.792 80.0886 114.193 79.4636C115.303 79.2761 115.443 79.2709 116.219 79.2448C117.209 81.5365 117.209 81.5365 115.339 86.1303C116.417 87.7917 118.553 87.1407 119.886 88.2344C120.11 93.9428 120.11 93.9428 120.844 95.125C122.172 94.474 123.454 95.5053 124.766 95.2292C125.063 94.3334 125.198 94.1042 125.527 93.5573C125.954 93.5782 126.516 93.6094 126.933 93.6511C127.386 93.2448 127.704 92.6875 128.282 92.4271C128.615 92.5886 128.98 92.948 129.188 93.25C128.823 94 128.152 94.4896 127.636 95.1042C127.881 96.0521 127.881 96.0521 128.943 96.4636C129.042 96.3178 129.172 96.1146 129.271 95.9636C128.589 95.0938 128.709 94.7761 129.001 94.2448C130.761 94.1615 131.714 96.349 133.61 95.8959C135.141 95.5261 136.443 94.474 138.068 94.3698C138.089 94.5417 138.12 94.7709 138.141 94.9428C137.87 95.25 137.87 95.25 136.214 95.823C136.126 95.9948 136.016 96.2292 135.933 96.4011C136.245 96.5261 136.719 96.573 137.058 96.5261C137.198 96.6355 137.386 96.7865 137.521 96.8959C137.402 97.0678 137.24 97.3021 137.12 97.474C137.183 97.6511 137.271 97.8907 137.334 98.073C139.698 98.4948 140.532 101.604 143.23 101.432C145.876 101.266 146.224 104.224 148.126 105.063C148.204 106.427 147.808 106.537 145.605 107.125C145.605 107.318 145.605 107.573 145.605 107.755C146.615 108.068 147.704 108.021 148.672 108.474C148.813 108.115 149.089 107.656 149.376 107.396C149.454 107.406 158.521 109.818 160.157 111.318C160.063 112.318 161.37 112.766 161.136 113.818Z" fill="#2F64A2"/>
<path d="M126.516 84.2657C126.214 84.3439 125.453 84.047 125.224 83.9532C124.995 83.8595 124.995 83.8595 123.839 83.6772C123.276 83.5887 123.198 83.2189 123.078 82.6095C122.964 82.0574 122.896 81.6928 122.391 81.448C122.24 81.3751 121.943 81.271 121.656 81.3907C121.594 81.4168 121.458 81.4741 121.276 81.2814C121.162 81.1616 121.016 80.9376 120.724 80.4845C120.068 79.4637 120.031 79.4637 119.807 79.4845C119.589 79.7762 119.672 80.2605 119.229 80.4168C119.047 80.4845 118.87 80.3647 118.688 80.3855C118.505 80.4064 118.37 80.5835 118.167 80.5418C118.052 80.5157 117.974 80.146 117.974 80.1407C117.948 79.9897 117.938 79.771 118.005 79.6303C118.031 79.5678 118.083 79.4949 118.12 79.4376C118.24 79.2449 118.464 79.1355 118.589 78.9428C118.708 78.7553 118.693 78.5157 118.818 78.3282C118.906 78.2032 119.063 78.2762 119.182 78.3647C119.344 78.4741 119.432 78.6772 119.651 78.7241C120.177 78.8282 120.714 78.6772 121.245 78.7866C121.703 78.922 121.922 79.3491 122.271 79.6199C122.542 79.823 122.896 79.5574 123.162 79.7814C123.224 79.8335 123.328 79.9272 123.511 80.3907C123.745 80.9689 123.943 81.4741 124.406 81.9689C124.854 82.4532 125.594 82.422 126.047 82.896C126.406 83.271 126.516 84.2605 126.516 84.2657Z" fill="#2F64A2"/>
<path d="M124.734 86.3647C124.682 86.9325 124.104 87.1981 123.677 86.672C122.802 85.5835 122.802 85.5835 122.656 84.8179C122.781 84.8543 123.099 84.9533 123.417 85.0158C123.542 85.0418 123.677 85.021 123.802 85.047C124.161 85.146 124.792 85.7293 124.734 86.3647Z" fill="#2F64A2"/>
<path d="M132.959 86.6981C132.922 87.0106 132.787 87.7397 132.271 87.7397C131.412 87.7345 131.042 86.8126 130.256 86.6772C129.693 86.5783 129.183 87.0001 128.615 86.8491C128.485 86.8126 128.391 86.7606 128.355 86.6876C128.282 86.5731 128.396 86.3751 128.219 86.3231C128.178 86.3074 128.178 86.3074 126.907 86.2501C126.141 86.2137 125.511 85.8022 125.506 85.797C125.323 85.6564 125.386 85.1876 125.584 85.2137C125.985 85.2762 126.167 85.7606 126.61 85.7449C126.87 85.7397 127.219 85.4116 127.053 85.172C126.959 85.0418 126.704 84.9324 126.511 84.8804C126.313 84.3908 126.49 84.2449 127.167 84.3335C127.433 84.3804 127.641 84.422 129.198 85.0574C130.141 85.4429 130.615 85.7345 130.61 85.9168C130.605 86.1095 130.782 86.297 130.855 86.3439C131.047 86.4637 131.261 86.3283 131.61 86.1095C132.178 85.7606 132.422 85.7606 132.709 85.8856C132.714 85.8856 133.032 86.0314 132.959 86.6981Z" fill="#2F64A2"/>
<path d="M150.907 20.2814C150.641 20.3334 150.365 20.3595 150.105 20.422C149.688 20.5157 149.292 20.6928 148.87 20.7605C148.751 20.7814 148.615 20.6928 148.636 20.6355C148.704 20.4845 150.053 20.1407 150.511 20.1511C150.167 20.323 149.777 20.3282 149.422 20.4793C149.511 20.5105 150.261 20.2814 150.266 20.2761C150.402 20.1511 151.98 19.9636 151.99 19.9689C151.943 20.0001 151.24 20.2084 150.907 20.2814Z" fill="#2F64A2"/>
<path d="M145.766 22.3229C145.734 22.3333 145.557 22.3854 145.463 22.3437C145.463 22.2968 145.505 22.2708 145.51 22.2291C145.25 22.125 145.047 22.4531 144.781 22.3177C144.797 22.2031 144.604 22.1875 144.489 22.1875C144.224 22.1927 143.984 22.3073 143.729 22.3333C143.724 22.3229 143.719 22.3125 143.724 22.3073L143.833 21.9739C144.276 21.75 144.781 21.75 145.234 21.5677C144.995 21.5729 144.771 21.7343 144.521 21.677C144.531 21.6145 144.463 21.5937 144.443 21.5468C144.531 21.4635 145.588 21.151 145.937 21.1093C146.427 21.0468 146.635 20.9895 146.703 20.9635C146.713 20.9531 146.713 20.9531 146.713 20.9531V20.9479H146.708C146.656 20.9166 146.557 20.927 145.609 21.1406C145.141 21.25 145.083 21.2604 145.016 21.2604C145.161 21.1354 146.114 20.9687 146.125 20.9687C146.187 20.9583 146.547 20.8854 146.755 20.8229C146.625 20.8229 146.625 20.8229 146.396 20.875C145.521 21.0729 145.234 20.9375 145.219 20.9323C145.484 20.6718 148.38 20.3229 148.719 20.3489C148.677 20.3698 148.677 20.3698 148.307 20.4635C148.604 20.427 148.87 20.2135 149.187 20.3177C149.078 20.3958 148.302 20.6093 148.026 20.6458C147.844 20.6666 147.526 20.7395 147.354 20.8073C147.364 20.8177 147.37 20.8437 147.37 20.8593C147.323 20.8906 147.266 20.9114 147.224 20.9479C147.505 20.9739 147.745 20.8177 148.016 20.7864C147.901 20.8645 146.76 21.1406 146.625 21.1614C146.625 21.1614 146.458 21.2083 146.417 21.2916C146.557 21.2968 146.682 21.2343 146.818 21.2187C146.802 21.25 146.802 21.25 146.594 21.3229C146.094 21.5104 145.755 21.6666 145.594 21.7812C145.729 21.8229 146.906 21.302 146.922 21.2968C147.01 21.25 147.953 20.9531 148.151 20.9948C148.156 21.0104 148.156 21.026 148.156 21.0364C147.76 21.3698 147.229 21.3437 146.776 21.5156C146.807 21.5416 146.838 21.552 147.229 21.4531C147.489 21.3906 147.51 21.3854 147.562 21.3854C147.411 21.5312 145.963 22.0416 145.953 22.0364C145.88 22.026 145.729 22.125 145.724 22.125C146.083 22.1354 146.385 21.927 146.729 21.875C146.687 21.9323 145.776 22.3177 145.766 22.3229Z" fill="#2F64A2"/>
<path d="M143.339 24.3645C142.928 24.5677 142.542 24.8125 142.115 24.9843C141.917 25.0625 141.704 25.052 141.496 25.1093C141.308 25.1614 141.152 25.2864 140.964 25.3437C140.933 25.3541 140.891 25.3593 140.86 25.3593C140.813 25.2916 140.954 25.1458 140.954 25.1458C140.985 25.1197 141.022 25.0781 141.053 25.052C141.22 24.9062 141.417 24.7968 141.584 24.6458C141.714 24.5364 141.803 24.3802 141.928 24.2708C142.063 24.151 142.209 24.0468 142.355 23.9375C142.667 23.6979 143.037 23.5572 143.183 23.5781C143.183 23.5885 143.178 23.5989 143.178 23.6041C142.704 23.8125 142.996 23.9531 142.996 23.9531C143.157 23.9895 143.657 23.7395 143.595 23.5729C143.808 23.3125 144.313 23.1406 144.584 23.1822C144.641 23.2656 144.548 23.3333 144.548 23.4062C144.584 23.4375 144.589 23.4427 144.917 23.3281C145.157 23.25 145.188 23.2395 145.235 23.2291C145.183 23.2864 144.193 23.7916 144.016 23.8072C144.016 23.8072 143.667 23.8281 143.595 23.9635C143.6 23.9687 143.6 23.9791 143.605 23.9843C143.673 23.9895 143.74 23.9479 143.808 23.9479C143.808 23.9479 143.568 24.25 143.339 24.3645Z" fill="#2F64A2"/>
<path d="M148.938 21.1094C148.823 21.1406 148.802 21.1042 148.833 21.0573C148.833 21.0573 148.927 20.9427 149.125 20.8646C149.422 20.7604 149.729 20.7083 150.031 20.625C149.958 20.7083 148.995 21.099 148.938 21.1094Z" fill="#2F64A2"/>
<path d="M147.959 21.4949C147.953 21.4949 147.615 21.6095 147.63 21.5626C147.636 21.5418 147.86 21.3751 148.037 21.3126C148.11 21.2918 148.62 21.2085 148.677 21.2241V21.2293C148.636 21.2606 147.964 21.4949 147.959 21.4949Z" fill="#2F64A2"/>
<path d="M146.943 22.4741C146.61 22.5158 146.61 22.5158 146.501 22.5627C146.277 22.6564 146.089 22.8439 145.823 22.8387C145.818 22.8387 145.813 22.8335 145.813 22.8283C145.777 22.7293 145.62 22.646 145.714 22.5314C145.876 22.3439 146.136 22.3804 146.329 22.2554C146.308 22.245 146.282 22.245 146.256 22.2345C146.271 22.146 147.037 21.8127 147.063 21.8022C147.094 21.7918 147.131 21.7762 147.157 21.771C147.36 21.7137 147.573 21.6981 147.771 21.6408C148.146 21.5366 148.48 21.3127 148.876 21.3022C148.876 21.3075 148.881 21.3179 148.876 21.3231C148.87 21.3283 148.86 21.3439 148.86 21.3491C148.844 21.3856 148.902 21.4064 148.886 21.4429C148.87 21.4845 148.818 21.4897 148.797 21.5262C148.86 21.547 148.917 21.521 148.975 21.5158C148.975 21.5262 148.959 21.5418 148.943 21.547C148.933 21.5522 148.917 21.5627 148.907 21.5679C148.433 21.7866 147.938 21.9741 147.454 22.172C147.271 22.2502 147.157 22.4481 146.943 22.4741Z" fill="#2F64A2"/>
<path d="M149.427 23.2293C149.412 23.2397 147.964 24.1616 147.802 24.0835C147.808 23.8856 148.078 23.8283 148.037 23.6147C147.99 23.5835 147.933 23.5731 147.589 23.6929C147.542 23.7137 147.422 23.7554 147.323 23.7554C147.25 23.7554 147.167 23.7241 147.183 23.5991C147.198 23.4637 147.334 23.4064 147.381 23.2918C147.375 23.2814 147.37 23.2762 147.365 23.271C147.094 23.2658 146.849 23.5887 146.558 23.3491C146.563 23.2658 146.646 23.2241 146.657 23.146C146.646 23.1356 146.636 23.1199 146.625 23.1043C146.698 23.0262 146.839 22.9429 147.479 22.672C147.917 22.4845 148.448 22.1981 148.49 22.1512C148.485 22.146 148.479 22.1356 148.474 22.1304C148.422 22.1356 148.396 22.1408 148.24 22.1981C148.131 22.2345 148.125 22.2345 148.094 22.2085C148.297 21.9377 148.641 21.9168 148.901 21.7502C148.797 21.7554 148.714 21.8699 148.594 21.797C148.625 21.7658 148.693 21.6877 149.224 21.4741C149.396 21.4116 149.563 21.3439 149.729 21.2814C149.844 21.2502 149.881 21.2449 149.912 21.2554C149.917 21.2606 149.922 21.271 149.927 21.2762C149.875 21.4064 149.615 21.6043 149.604 21.6147C149.568 21.6408 149.568 21.646 149.563 21.6772C149.594 21.7189 149.594 21.7189 149.86 21.6824C149.865 21.6877 149.865 21.6929 149.87 21.6981C149.813 21.7345 149.735 21.7866 149.172 22.0522C148.813 22.2241 148.688 22.2866 148.662 22.3439C148.714 22.3908 148.787 22.3595 148.839 22.396C148.802 22.4949 148.599 22.521 148.667 22.6408C148.688 22.6877 148.688 22.6877 148.948 22.6043C149.037 22.5731 149.125 22.5314 149.224 22.521C149.302 22.5106 149.381 22.5314 149.453 22.5262C149.646 22.5054 149.875 22.4741 150.058 22.4481C150.084 22.4429 150.12 22.4377 150.146 22.4481C150.094 22.6252 149.881 22.6616 149.818 22.8335C149.834 22.8387 149.854 22.8387 149.87 22.8335C149.834 22.9272 149.787 22.9949 149.427 23.2293Z" fill="#2F64A2"/>
<path d="M146.699 22.9583C146.636 22.9843 146.464 23.0677 146.381 23.0625C146.36 23.0625 146.11 22.9531 146.12 22.9062C146.136 22.8229 147.329 22.3281 147.574 22.2291C147.714 22.1718 147.834 22.2031 147.834 22.2031C147.99 22.2916 146.709 22.9531 146.699 22.9583Z" fill="#2F64A2"/>
<path d="M150.562 21.2708C150.37 21.3333 149.917 21.4271 149.948 21.3125C149.953 21.2969 149.953 21.2969 150.776 20.9427C150.63 20.9479 150.505 21.026 150.364 21.0521C150.437 20.974 150.562 20.9896 150.63 20.9062C150.609 20.8854 150.583 20.8958 150.557 20.8958C150.693 20.7969 152.557 20.25 152.562 20.25C152.557 20.2604 152.552 20.2656 152.542 20.2656C152.385 20.3542 152.213 20.4167 152.057 20.5C152.021 20.5208 152.005 20.5677 151.963 20.5885C151.63 20.7552 151.239 20.7812 150.922 20.9844C150.828 21.0469 150.792 21.0625 150.802 21.099C150.812 21.1771 150.625 21.25 150.562 21.2708Z" fill="#2F64A2"/>
<path d="M150.537 20.8802C150.188 20.9948 150.152 20.9896 150.12 20.9844C150.12 20.974 150.115 20.974 150.115 20.9636C150.214 20.7969 150.423 20.8281 150.563 20.7292C150.553 20.7031 150.506 20.7084 150.511 20.6719C150.516 20.6406 150.553 20.6146 150.579 20.599C150.641 20.5573 151.011 20.4219 151.1 20.3906C151.318 20.3125 151.548 20.2917 151.766 20.2292C151.959 20.1771 152.131 20.0886 152.324 20.0417C152.334 20.0417 152.605 19.974 152.693 19.9948C152.693 20 152.693 20.0052 152.693 20.0104C152.777 20.0156 152.855 19.9844 152.933 19.9896C152.709 20.125 152.428 20.1042 152.199 20.2448C152.318 20.2813 152.417 20.2031 152.527 20.1979C152.516 20.2084 152.495 20.2188 152.48 20.224C152.469 20.224 152.459 20.2292 152.449 20.2344C152.1 20.3542 151.735 20.4427 151.391 20.5625C151.105 20.6615 150.829 20.7865 150.537 20.8802Z" fill="#2F64A2"/>
<path d="M152.974 20.1302C152.828 20.1718 152.693 20.2343 152.542 20.2448C152.631 20.177 154.198 19.75 154.308 19.7552C154.266 19.776 154.224 19.7864 154.188 19.7968C153.782 19.9114 153.375 20.0208 152.974 20.1302Z" fill="#2F64A2"/>
<path d="M157.146 19.1772C157.084 19.2241 157.016 19.2658 156.949 19.3075C156.943 19.3075 156.943 19.3075 156.943 19.3075C155.365 20.2658 154.449 20.521 154.443 20.521C154.454 20.495 154.475 20.4637 154.495 20.4481C154.485 20.4377 154.469 20.4272 154.454 20.422C154.219 20.4793 153.943 20.6668 153.933 20.6772C153.959 20.672 153.99 20.6668 154.016 20.6564C154.021 20.6668 154.032 20.6825 154.037 20.6929C153.917 20.7866 152.766 21.5366 152.605 21.547C152.594 21.5366 152.584 21.521 152.574 21.5106C152.579 21.495 152.579 21.4793 152.579 21.4689C152.579 21.4689 151.943 21.5627 151.475 21.9585C151.516 22.2502 150.334 22.7762 150.324 22.7762C150.318 22.7658 150.313 22.7554 150.308 22.7397C150.23 22.7397 150.23 22.7397 149.87 22.8335C149.86 22.8335 149.844 22.8387 149.834 22.8387C149.86 22.7762 149.87 22.7502 150.537 22.3491C150.615 22.3022 150.704 22.2554 150.777 22.1981C150.693 22.1877 150.615 22.2241 150.532 22.2241C150.417 22.0887 150.157 22.1981 150.037 22.2502C149.891 22.3127 149.516 22.4377 149.225 22.1929C149.396 21.9637 150.449 21.5575 150.558 21.5418L152.657 20.7554C152.626 20.7502 152.475 20.745 151.949 20.9272C151.631 21.0366 151.475 21.0887 151.396 21.0002C151.709 20.7762 151.709 20.7762 152.777 20.3543C152.782 20.3387 152.782 20.3387 152.782 20.3387C152.777 20.3387 152.777 20.3387 152.777 20.3387C153.459 19.9168 156.209 19.3856 156.235 19.3804C155.855 19.5314 155.449 19.5835 155.074 19.7502C155.792 19.6564 156.449 19.3387 157.152 19.1772H157.146Z" fill="#2F64A2"/>
<path d="M157.495 19.3698C157.412 19.3229 157.297 19.2552 157.208 19.2083C157.203 19.2135 157.203 19.2135 157.198 19.2188C157.229 19.2448 157.271 19.2812 157.302 19.3073C157.261 19.2708 157.203 19.224 157.162 19.1875L157.13 19.2031C157.11 19.2344 157.089 19.2708 157.068 19.2969C157.089 19.2656 157.115 19.224 157.136 19.1927C157.125 19.1979 157.11 19.2083 157.104 19.2135C154.912 20.875 154.099 21.0833 153.792 21.1562C153.771 21.1354 153.74 21.1042 153.719 21.0833C153.552 21.151 153.511 21.1667 153.146 21.6094C153.172 21.6302 153.214 21.6615 153.24 21.6823C153.313 21.6667 153.401 21.6406 153.469 21.625C153.276 22.2135 152.61 21.849 152.276 22.1719C152.292 22.2031 152.318 22.2448 152.333 22.276C152.375 22.2812 152.427 22.2969 152.464 22.3021C152.344 22.625 151.995 22.8073 151.932 23.1615C152.333 23.0365 152.583 22.6667 152.964 22.4948C152.922 22.6771 152.813 22.8333 152.818 23.026C153.104 23.1927 153.875 23.6354 152.839 25.1875C152.094 26.3073 151.974 27.7396 151.974 27.75C152.302 27.5625 152.37 27.099 152.776 26.9896C152.797 27.0156 152.818 27.0521 152.839 27.0729C152.776 27.4219 153.13 27.6719 153.063 28.0156C153.011 28.276 152.693 28.2188 152.63 28.125C152.516 27.9531 152.604 27.7552 152.563 27.5781C152.333 27.625 151.203 29.0312 151.177 29.1198C151.485 29.3125 152.042 29.5417 152.36 28.8958C152.682 28.9427 152.682 28.9427 152.912 28.9115C152.974 29 153.037 29.0885 152.912 29.3177C152.693 29.7292 152.198 29.849 151.964 30.2344C151.61 30.8073 151.563 31.5052 151.214 32.0781C150.37 33.4427 151.011 34.5469 151.021 34.5573C151.386 34.5417 151.412 33.9479 151.854 34.0625C151.833 34.1979 151.813 34.3125 151.047 34.8229C150.985 35.2344 151.214 37.6979 151.219 37.7031C151.761 38.3906 152.714 38.0365 153.328 38.5417C153.818 38.9427 154.167 39.5 154.74 39.8177C154.797 39.849 154.912 39.8438 154.964 39.8021C156.078 39 155.943 37.6562 155.828 37.4427C155.708 37.2135 155.391 37.099 155.458 36.7708C155.563 36.2604 156.089 36 156.214 35.5104C156.36 34.9688 156.792 34.5625 156.906 34.0156C156.964 33.7396 156.891 33.5417 156.729 33.1042C156.75 33.0833 156.781 33.0469 156.807 33.026C158.698 33.5417 160.11 32.0156 160.115 31.7604C160.146 30.7448 160.146 30.7448 160.188 30.7135C160.61 30.3958 160.922 31.1927 161.344 30.8385L162.813 29.2083C163 28.8125 162.594 28.151 162.589 28.1458C162.432 27.9427 162.188 27.9583 161.865 28.1927C161.474 28.474 160.526 28.4219 160.386 28.2656C160.151 28.0052 161.073 27.3698 161.307 27.3698C161.88 27.3542 162.198 27.9896 162.781 27.9635C162.979 26.3802 159.641 26.6094 160.63 25.3646C160.667 25.3646 160.708 25.3698 160.745 25.3698C161.25 25.9844 161.25 25.9844 161.542 25.9271C161.719 25.6042 161.781 25.2188 162.068 24.9531C161.958 24.4635 161.485 24.1406 161.396 24.1094C161.333 24.1458 161.255 24.1823 161.198 24.2031C161.12 24.1615 161.021 24.0938 160.974 24.0208C161.042 23.8281 161.224 23.75 161.406 23.8385C161.099 23.2917 160.417 23.1979 160.052 22.7188C160.057 22.6823 160.068 22.6302 160.073 22.5938C160.141 22.5521 160.141 22.5521 160.5 22.5521C160.5 22.5417 160.438 21.8021 159.354 21.776C158.042 19.7031 158.042 19.7031 157.495 19.3698Z" fill="#2F64A2"/>
<path d="M188.604 39.0783C188.828 39.4429 188.776 39.922 189.078 40.2606C189.328 40.547 189.594 40.7189 189.849 40.8908C189.974 40.9689 190.297 41.1825 190.26 41.4897C190.26 41.5158 190.188 42.0939 190.057 42.2345C190.042 42.245 190.026 42.2606 190.01 42.271C189.771 42.4481 189.25 42.4741 188.969 42.4845C188.766 42.495 188.708 42.5575 188.688 42.62C188.615 42.7918 188.698 42.9897 188.604 43.1616C188.234 43.8127 188.151 43.7866 188.052 43.7502C187.333 43.495 187.495 42.8022 187.818 42.5106C187.917 42.422 187.979 42.3647 187.896 42.2085C187.823 42.0575 187.667 41.8179 187.443 41.9325C187.307 42.0054 187.172 42.0731 186.818 41.646C187.135 41.3752 187.26 41.2762 187.099 41.0002C186.828 40.521 186.208 40.3752 185.984 39.8439C185.995 39.8231 186.01 39.7918 186.021 39.7658C186.406 39.62 186.354 39.495 185.896 38.9116C185.521 38.4272 184.927 38.2189 184.49 37.8127C184.505 37.8179 184.526 37.8335 184.536 37.8439C184.505 37.7606 184.37 37.5575 183.911 37.4481C183.531 37.3543 183.391 37.3231 183 37.0679C183.005 37.0627 183.094 36.3856 182.318 36.3022C181.422 36.2033 180.766 35.4481 180.656 35.1616C180.667 35.1512 180.672 35.1304 180.682 35.12C181.052 35.1043 181.323 35.396 181.672 35.4377C181.677 35.3439 181.677 35.3439 181.438 35.0679C180.896 34.4585 180.891 34.4377 180.859 34.297C180.974 34.1095 181.167 34.245 181.318 34.2137C181.542 34.172 181.474 33.9325 181.594 33.8179C181.734 33.8179 181.865 33.87 182.005 33.8804C182.203 34.1772 182.464 34.5679 182.661 34.8647L183.057 35.5731C183.656 34.3856 184.365 36.3127 184.37 36.3335C184.401 36.4637 184.177 36.4585 184.224 36.5887C184.286 36.7658 184.635 37.0939 184.635 37.0939C184.818 37.2502 184.948 36.9637 185.125 36.9533C185.5 36.9429 185.531 37.3335 185.76 37.495C185.943 37.6304 185.943 37.6304 186.812 38.0158C187.276 38.2241 187.438 38.745 187.844 39.0106C187.87 39.0262 188.099 39.172 188.188 39.0835C188.25 39.0158 188.25 38.9168 188.286 38.8387C188.323 38.8387 188.37 38.8335 188.401 38.8335C188.469 38.896 188.552 38.995 188.604 39.0783Z" fill="#2F64A2"/>
<path d="M185.016 38.896C185.344 39.6043 185.37 40.4325 185.886 41.0679C186.021 41.2345 186.235 41.3283 186.355 41.521C186.412 41.6043 186.459 41.6773 186.396 41.8648C186.391 41.87 186.183 42.4741 185.709 42.5679C185.006 42.7085 183.933 42.4168 183.844 42.37C183.839 42.37 183.834 42.3648 183.824 42.3595C183.938 42.245 184.126 42.2189 184.193 42.0523C184.245 41.9116 184.115 41.7345 184.271 41.6095C184.329 41.5627 184.329 41.5627 184.636 41.7033C184.782 41.771 184.876 41.6616 184.699 41.4689C184.615 41.3856 184.329 41.2241 184.12 41.146C183.751 41.0158 183.688 40.9898 183.495 40.7293C183.443 40.6512 182.928 39.5731 182.896 39.4429C183.141 39.4741 183.329 39.771 183.62 39.6095C183.751 39.5418 183.558 39.2241 183.49 39.12C183.251 38.7293 183.251 38.7241 183.271 38.6512C183.271 38.646 183.714 38.3752 183.719 38.3752C183.798 38.3543 183.923 38.3179 184.1 38.3908C184.282 38.4637 184.443 38.5627 184.626 38.6304C184.709 38.6616 184.798 38.6304 184.876 38.672C184.943 38.7085 184.98 38.8231 185.016 38.896Z" fill="#2F64A2"/>
<path d="M173.537 29.599C173.573 29.6458 173.703 29.8073 173.703 29.901C173.708 30.0469 173.537 30.099 173.516 30.2292C173.49 30.401 173.625 30.5469 173.578 30.7188C173.563 30.7708 173.479 30.8021 173.339 30.8542C173.068 30.9583 172.953 31.026 173.24 31.4375C173.391 31.6615 173.484 31.7969 172.912 31.7396C172.599 31.7083 172.208 31.5729 171.979 31.4635C171.844 31.3958 171.844 31.3906 171.792 31.4063C171.682 31.4375 171.599 31.5313 171.474 31.5156C171.464 31.5104 171.443 31.5104 171.427 31.5052C171.37 31.4844 171.208 31.4375 170.953 31.1563C170.75 30.9375 170.537 30.5938 170.396 30.2604C170.386 30.2448 170.365 30.2188 170.349 30.2031C170.136 30.0521 170.026 30.4167 169.823 30.3646C169.823 30.3594 169.828 30.3438 169.833 30.3333C170.287 30.1406 169.776 29.7865 169.729 29.7708C169.672 29.7448 169.667 29.7552 169.646 29.7708C169.516 29.9063 168.917 29.6146 168.781 29.4531C168.63 29.276 168.714 28.7344 168.823 28.7083C168.891 28.6875 169.521 29.0156 169.787 29.2552C170.188 29.6146 170.255 29.625 170.323 29.6406C170.328 29.6302 170.344 29.6198 170.344 29.6146C170.333 29.1979 169.927 29.0677 169.75 28.7708C169.755 28.7656 169.761 28.7552 169.766 28.7448C169.974 28.75 170.229 28.9583 170.354 29.0521C170.495 29.1667 170.615 29.2604 170.656 29.2448C170.688 29.2292 170.755 29.1979 170.667 28.7865C170.641 28.6667 170.636 28.6406 170.656 28.6146C170.729 28.5208 170.859 28.5625 170.938 28.4896C171.063 28.375 171.052 28.1667 171.214 28.0833C171.245 28.0781 171.323 28.0729 171.458 28.1563C171.813 28.3906 172.109 28.6927 172.469 28.9219C172.682 29.0573 172.943 29.0833 173.151 29.2292C173.219 29.276 173.412 29.4479 173.537 29.599Z" fill="#2F64A2"/>
<mask id="mask3_130_77" style="mask-type:luminance" maskUnits="userSpaceOnUse" x="95" y="77" width="31" height="93">
<path d="M95.292 77.1875H125.959V170H95.292V77.1875Z" fill="white"/>
</mask>
<g mask="url(#mask3_130_77)">
<path d="M96.2764 77.3438V170.01H124.927V77.3438H96.2764Z" fill="#2F994A"/>
</g>
<mask id="mask4_130_77" style="mask-type:luminance" maskUnits="userSpaceOnUse" x="60" y="77" width="52" height="93">
<path d="M60.625 77.1875H111.292V170H60.625V77.1875Z" fill="white"/>
</mask>
<g mask="url(#mask4_130_77)">
<path d="M110.604 170.01H61.4271V77.3438H110.604V170.01Z" fill="#206C34"/>
</g>
<mask id="mask5_130_77" style="mask-type:luminance" maskUnits="userSpaceOnUse" x="101" y="77" width="4" height="93">
<path d="M101.959 77.1875H104.626V170H101.959V77.1875Z" fill="white"/>
</mask>
<g mask="url(#mask5_130_77)">
<path d="M104.407 77.3438H103.251V170.01H104.407V77.3438Z" fill="#143B1E"/>
</g>
<path d="M124.927 95.7813H110.604V86.4636H124.927V95.7813Z" fill="#EE9D2B"/>
<path d="M124.927 106.646H110.604V99.4688H124.927V106.646Z" fill="#EE9D2B"/>
<mask id="mask6_130_77" style="mask-type:luminance" maskUnits="userSpaceOnUse" x="68" y="71" width="32" height="99">
<path d="M68.625 71.8542H99.2917V170H68.625V71.8542Z" fill="white"/>
</mask>
<g mask="url(#mask6_130_77)">
<path d="M68.6875 72.3334V170.01H98.8958V72.3334H68.6875Z" fill="#DD202A"/>
</g>
<mask id="mask7_130_77" style="mask-type:luminance" maskUnits="userSpaceOnUse" x="31" y="71" width="54" height="99">
<path d="M31.292 71.8542H84.6253V170H31.292V71.8542Z" fill="white"/>
</mask>
<g mask="url(#mask7_130_77)">
<path d="M83.7919 170.01H31.9534V72.3334H83.7919V170.01Z" fill="#8E191F"/>
</g>
<mask id="mask8_130_77" style="mask-type:luminance" maskUnits="userSpaceOnUse" x="75" y="71" width="3" height="99">
<path d="M75.292 71.8542H77.9587V170H75.292V71.8542Z" fill="white"/>
</mask>
<g mask="url(#mask8_130_77)">
<path d="M77.2607 72.3334H76.0367V170.01H77.2607V72.3334Z" fill="#6E131A"/>
</g>
<path d="M98.8962 91.7657H83.792V81.948H98.8962V91.7657Z" fill="#EE9D2B"/>
<path d="M98.8962 103.224H83.792V95.6511H98.8962V103.224Z" fill="#EE9D2B"/>
<path d="M98.8962 151.396H83.792V141.578H98.8962V151.396Z" fill="#EE9D2B"/>
<path d="M98.8962 162.849H83.792V155.281H98.8962V162.849Z" fill="#EE9D2B"/>
<mask id="mask9_130_77" style="mask-type:luminance" maskUnits="userSpaceOnUse" x="33" y="86" width="33" height="85">
<path d="M33.959 86.521H65.959V170H33.959V86.521Z" fill="white"/>
</mask>
<g mask="url(#mask9_130_77)">
<path d="M35.2194 87.7762V170.011H65.4277V87.7762H35.2194Z" fill="#3B85B9"/>
</g>
<mask id="mask10_130_77" style="mask-type:luminance" maskUnits="userSpaceOnUse" x="0" y="86" width="52" height="85">
<path d="M0 86.521H51.2917V170H0V86.521Z" fill="white"/>
</mask>
<g mask="url(#mask10_130_77)">
<path d="M50.323 170.011H0.119873V87.7762H50.323V170.011Z" fill="#22557D"/>
</g>
<mask id="mask11_130_77" style="mask-type:luminance" maskUnits="userSpaceOnUse" x="41" y="86" width="4" height="85">
<path d="M41.959 86.521H44.6257V170H41.959V86.521Z" fill="white"/>
</mask>
<g mask="url(#mask11_130_77)">
<path d="M43.7923 87.7762H42.5684V170.011H43.7923V87.7762Z" fill="#143349"/>
</g>
<path d="M65.4274 107.214H50.3232V97.3906H65.4274V107.214Z" fill="#FDF8CF"/>
<path d="M65.4274 118.667H50.3232V111.099H65.4274V118.667Z" fill="#FDF8CF"/>
</svg>
