<svg width="300" height="300" viewBox="0 0 349 349" fill="none" xmlns="http://www.w3.org/2000/svg">
<path d="M321.629 27.3708V23.95C321.629 10.7464 310.883 0 297.675 0C284.471 0 273.725 10.7464 273.725 23.95V27.3708H260.037V23.95C260.037 10.7464 249.295 0 236.087 0C222.88 0 212.137 10.7464 212.137 23.95V27.3708H198.45V23.95C198.45 10.7464 187.708 0 174.5 0C161.292 0 150.55 10.7464 150.55 23.95V27.3708H136.863V23.95C136.863 10.7464 126.12 0 112.913 0C99.7047 0 88.9625 10.7464 88.9625 23.95V27.3708H75.275V23.95C75.275 10.7464 64.5286 0 51.325 0C38.1172 0 27.3708 10.7464 27.3708 23.95V27.3708C12.2779 27.3708 0 39.653 0 54.7458V321.629C0 336.722 12.2779 349 27.3708 349H321.629C336.722 349 349 336.722 349 321.629V54.7458C349 39.653 336.722 27.3708 321.629 27.3708ZM287.413 23.95C287.413 18.2907 292.016 13.6875 297.675 13.6875C303.339 13.6875 307.942 18.2907 307.942 23.95V44.4792C307.942 50.1385 303.339 54.7458 297.675 54.7458C292.016 54.7458 287.413 50.1385 287.413 44.4792V23.95ZM225.825 23.95C225.825 18.2907 230.428 13.6875 236.087 13.6875C241.747 13.6875 246.354 18.2907 246.354 23.95V44.4792C246.354 50.1385 241.747 54.7458 236.087 54.7458C230.428 54.7458 225.825 50.1385 225.825 44.4792V23.95ZM164.233 23.95C164.233 18.2907 168.841 13.6875 174.5 13.6875C180.159 13.6875 184.767 18.2907 184.767 23.95V44.4792C184.767 50.1385 180.159 54.7458 174.5 54.7458C168.841 54.7458 164.233 50.1385 164.233 44.4792V23.95ZM102.646 23.95C102.646 18.2907 107.253 13.6875 112.913 13.6875C118.572 13.6875 123.175 18.2907 123.175 23.95V44.4792C123.175 50.1385 118.572 54.7458 112.913 54.7458C107.253 54.7458 102.646 50.1385 102.646 44.4792V23.95ZM41.0583 23.95C41.0583 18.2907 45.6615 13.6875 51.325 13.6875C56.9843 13.6875 61.5875 18.2907 61.5875 23.95V44.4792C61.5875 50.1385 56.9843 54.7458 51.325 54.7458C45.6615 54.7458 41.0583 50.1385 41.0583 44.4792V23.95ZM27.3708 41.0583V44.4792C27.3708 57.687 38.1172 68.4333 51.325 68.4333C64.5286 68.4333 75.275 57.687 75.275 44.4792V41.0583H88.9625V44.4792C88.9625 57.687 99.7047 68.4333 112.913 68.4333C126.12 68.4333 136.863 57.687 136.863 44.4792V41.0583H150.55V44.4792C150.55 57.687 161.292 68.4333 174.5 68.4333C187.708 68.4333 198.45 57.687 198.45 44.4792V41.0583H212.137V44.4792C212.137 57.687 222.88 68.4333 236.087 68.4333C249.295 68.4333 260.037 57.687 260.037 44.4792V41.0583H273.725V44.4792C273.725 57.687 284.471 68.4333 297.675 68.4333C310.883 68.4333 321.629 57.687 321.629 44.4792V41.0583C329.174 41.0583 335.312 47.1973 335.312 54.7458V82.1167C323.792 82.1167 24.6485 82.1167 13.6875 82.1167V54.7458C13.6875 47.1973 19.8265 41.0583 27.3708 41.0583ZM41.0583 95.8042H307.942V307.942H41.0583V95.8042ZM321.629 335.312H27.3708C19.8265 335.312 13.6875 329.174 13.6875 321.629V95.8042H27.3708V314.783C27.3708 318.562 30.4382 321.629 34.2167 321.629H314.783C318.562 321.629 321.629 318.562 321.629 314.783V95.8042H335.312V321.629C335.312 329.174 329.174 335.312 321.629 335.312Z" fill="#FAFAFA"/>
<path d="M95.8051 126.6H68.4343C64.6516 126.6 61.5884 129.664 61.5884 133.442V160.813C61.5884 164.595 64.6516 167.659 68.4343 167.659H95.8051C99.5836 167.659 102.647 164.595 102.647 160.813V133.442C102.647 129.664 99.5836 126.6 95.8051 126.6ZM88.9634 153.971H75.2759V140.284H88.9634V153.971Z" fill="#FAFAFA"/>
<path d="M157.391 126.6H130.02C126.237 126.6 123.174 129.664 123.174 133.442V160.813C123.174 164.595 126.237 167.659 130.02 167.659H157.391C161.169 167.659 164.232 164.595 164.232 160.813V133.442C164.232 129.664 161.169 126.6 157.391 126.6ZM150.549 153.971H136.861V140.284H150.549V153.971Z" fill="#FAFAFA"/>
<path d="M218.978 126.6H191.607C187.828 126.6 184.765 129.664 184.765 133.442V160.813C184.765 164.595 187.828 167.659 191.607 167.659H218.978C222.756 167.659 225.824 164.595 225.824 160.813V133.442C225.824 129.664 222.756 126.6 218.978 126.6ZM212.136 153.971H198.449V140.284H212.136V153.971Z" fill="#FAFAFA"/>
<path d="M280.565 126.6H253.194C249.416 126.6 246.353 129.664 246.353 133.442V160.813C246.353 164.595 249.416 167.659 253.194 167.659H280.565C284.348 167.659 287.411 164.595 287.411 160.813V133.442C287.411 129.664 284.348 126.6 280.565 126.6ZM273.723 153.971H260.036V140.284H273.723V153.971Z" fill="#FAFAFA"/>
<path d="M95.8051 181.341H68.4343C64.6516 181.341 61.5884 184.409 61.5884 188.187V215.558C61.5884 219.337 64.6516 222.4 68.4343 222.4H95.8051C99.5836 222.4 102.647 219.337 102.647 215.558V188.187C102.647 184.409 99.5836 181.341 95.8051 181.341ZM88.9634 208.716H75.2759V195.029H88.9634V208.716Z" fill="#FAFAFA"/>
<path d="M157.391 181.341H130.02C126.237 181.341 123.174 184.409 123.174 188.187V215.558C123.174 219.337 126.237 222.4 130.02 222.4H157.391C161.169 222.4 164.232 219.337 164.232 215.558V188.187C164.232 184.409 161.169 181.341 157.391 181.341ZM150.549 208.716H136.861V195.029H150.549V208.716Z" fill="#FAFAFA"/>
<path d="M218.978 181.341H191.607C187.828 181.341 184.765 184.409 184.765 188.187V215.558C184.765 219.337 187.828 222.4 191.607 222.4H218.978C222.756 222.4 225.824 219.337 225.824 215.558V188.187C225.824 184.409 222.756 181.341 218.978 181.341ZM212.136 208.716H198.449V195.029H212.136V208.716Z" fill="#FAFAFA"/>
<path d="M280.565 181.341H253.194C249.416 181.341 246.353 184.409 246.353 188.187V215.558C246.353 219.337 249.416 222.4 253.194 222.4H280.565C284.348 222.4 287.411 219.337 287.411 215.558V188.187C287.411 184.409 284.348 181.341 280.565 181.341ZM273.723 208.716H260.036V195.029H273.723V208.716Z" fill="#FAFAFA"/>
<path d="M95.8051 236.088H68.4343C64.6516 236.088 61.5884 239.151 61.5884 242.934V270.304C61.5884 274.083 64.6516 277.146 68.4343 277.146H95.8051C99.5836 277.146 102.647 274.083 102.647 270.304V242.934C102.647 239.151 99.5836 236.088 95.8051 236.088ZM88.9634 263.463H75.2759V249.775H88.9634V263.463Z" fill="#FAFAFA"/>
<path d="M157.391 236.088H130.02C126.237 236.088 123.174 239.151 123.174 242.934V270.304C123.174 274.083 126.237 277.146 130.02 277.146H157.391C161.169 277.146 164.232 274.083 164.232 270.304V242.934C164.232 239.151 161.169 236.088 157.391 236.088ZM150.549 263.463H136.861V249.775H150.549V263.463Z" fill="#FAFAFA"/>
<path d="M218.978 236.088H191.607C187.828 236.088 184.765 239.151 184.765 242.934V270.304C184.765 274.083 187.828 277.146 191.607 277.146H218.978C222.756 277.146 225.824 274.083 225.824 270.304V242.934C225.824 239.151 222.756 236.088 218.978 236.088ZM212.136 263.463H198.449V249.775H212.136V263.463Z" fill="#FAFAFA"/>
<path d="M280.565 236.088H253.194C249.416 236.088 246.353 239.151 246.353 242.934V270.304C246.353 274.083 249.416 277.146 253.194 277.146H280.565C284.348 277.146 287.411 274.083 287.411 270.304V242.934C287.411 239.151 284.348 236.088 280.565 236.088ZM273.723 263.463H260.036V249.775H273.723V263.463Z" fill="#FAFAFA"/>
</svg>
