<svg width="144" height="126" viewBox="0 0 194 176" fill="none" xmlns="http://www.w3.org/2000/svg">
<mask id="mask0_180_36" style="mask-type:luminance" maskUnits="userSpaceOnUse" x="0" y="0" width="164" height="174">
<path d="M0 0H163.693V173.844H0V0Z" fill="white"/>
</mask>
<g mask="url(#mask0_180_36)">
<path d="M162.74 120.849L65.3958 173.099L0.119751 52.2396L97.4635 -0.015625L162.74 120.849Z" fill="#EDEDED"/>
</g>
<path d="M14.8226 61.8488L13.2393 58.9217L72.3434 27.1978L73.9268 30.1248L14.8226 61.8488Z" fill="#C5C4C4"/>
<path d="M18.0671 67.8542L16.4785 64.9271L75.5879 33.2031L77.1712 36.1302L18.0671 67.8542Z" fill="#C5C4C4"/>
<path d="M21.307 73.8594L19.7236 70.9323L78.833 39.2031L80.4111 42.1354L21.307 73.8594Z" fill="#C5C4C4"/>
<path d="M24.5469 79.8645L22.9688 76.9374L81.1198 45.7239L80.8698 49.6353L24.5469 79.8645Z" fill="#C5C4C4"/>
<path d="M27.791 85.8696L26.2129 82.9425L80.6035 53.7446L80.3587 57.6509L27.791 85.8696Z" fill="#C5C4C4"/>
<path d="M31.0365 91.8748L29.4531 88.9478L80.0938 61.7603L79.8438 65.6717L31.0365 91.8748Z" fill="#C5C4C4"/>
<path d="M34.2754 97.8802L32.6973 94.9479L79.5827 69.7812L79.3327 73.6927L34.2754 97.8802Z" fill="#C5C4C4"/>
<path d="M37.5205 103.88L35.9424 100.953L79.0726 77.7969L78.8226 81.7083L37.5205 103.88Z" fill="#C5C4C4"/>
<path d="M40.765 109.885L39.1816 106.958L78.5619 85.8176L78.3119 89.7291L40.765 109.885Z" fill="#C5C4C4"/>
<path d="M44.0049 115.885L42.4268 112.958L78.0518 93.8384L77.8018 97.7498L44.0049 115.885Z" fill="#C5C4C4"/>
<path d="M47.2441 121.89L45.666 118.963L77.541 101.854L77.291 105.765L47.2441 121.89Z" fill="#C5C4C4"/>
<path d="M50.4893 127.896L48.9111 124.969L77.0257 109.875L76.7809 113.786L50.4893 127.896Z" fill="#C5C4C4"/>
<path d="M53.7337 133.901L52.1504 130.974L76.515 117.896L76.265 121.807L53.7337 133.901Z" fill="#C5C4C4"/>
<path d="M56.9736 139.906L55.3955 136.979L76.0049 125.911L75.7549 129.823L56.9736 139.906Z" fill="#C5C4C4"/>
<path d="M60.2181 145.911L58.6348 142.984L75.4941 133.932L75.2441 137.844L60.2181 145.911Z" fill="#C5C4C4"/>
<path d="M63.4632 151.911L61.8799 148.984L74.984 141.953L74.859 143.865L78.0726 144.068L63.4632 151.911Z" fill="#C5C4C4"/>
<path d="M66.7031 157.917L65.125 154.99L84.6823 144.49L90.9792 144.885L66.7031 157.917Z" fill="#C5C4C4"/>
<path d="M105.979 33.3593L86.1562 43.9999L76.0156 25.2291L95.8385 14.5833L105.979 33.3593Z" fill="#6BC5BB"/>
<path d="M116.812 53.4115L96.984 64.0521L86.8486 45.2812L106.672 34.6406L116.812 53.4115Z" fill="#183651"/>
<path d="M127.646 73.4687L107.817 84.1093L97.6768 65.3385L117.5 54.6926L127.646 73.4687Z" fill="#F9A72B"/>
<path d="M138.473 93.5208L118.65 104.161L108.51 85.3906L128.333 74.75L138.473 93.5208Z" fill="#648F16"/>
<path d="M149.302 113.578L129.479 124.219L119.344 105.448L139.167 94.802L149.302 113.578Z" fill="#6BC5BB"/>
<mask id="mask1_180_36" style="mask-type:luminance" maskUnits="userSpaceOnUse" x="74" y="5" width="120" height="147">
<path d="M74.3594 5.84375H194V151.177H74.3594V5.84375Z" fill="white"/>
</mask>
<g mask="url(#mask1_180_36)">
<path d="M185.198 150.854L74.8594 143.865L83.5938 6.86981L193.927 13.8594L185.198 150.854Z" fill="#E5E4E4"/>
</g>
<path d="M157.964 27.0259L90.9688 22.7811L91.1771 19.4634L158.177 23.7082L157.964 27.0259Z" fill="#BDBCBD"/>
<path d="M157.531 33.8333L90.5361 29.5885L90.7445 26.2708L157.739 30.5155L157.531 33.8333Z" fill="#BDBCBD"/>
<path d="M157.099 40.6405L90.0986 36.3957L90.3122 33.0728L157.307 37.3175L157.099 40.6405Z" fill="#BDBCBD"/>
<path d="M156.661 47.4426L89.666 43.1978L89.8796 39.8801L156.874 44.1249L156.661 47.4426Z" fill="#BDBCBD"/>
<path d="M156.229 54.25L89.2344 50.0052L89.4427 46.6875L156.438 50.9323L156.229 54.25Z" fill="#BDBCBD"/>
<path d="M155.792 61.0571L88.7969 56.8123L89.0104 53.4946L156.005 57.7342L155.792 61.0571Z" fill="#BDBCBD"/>
<path d="M155.359 67.8594L88.3643 63.6146L88.5778 60.2969L155.573 64.5417L155.359 67.8594Z" fill="#BDBCBD"/>
<path d="M154.926 74.6665L87.9316 70.4217L88.1452 67.104L155.14 71.3488L154.926 74.6665Z" fill="#BDBCBD"/>
<path d="M154.495 81.4688L87.5 77.224L87.7083 73.9062L154.703 78.151L154.495 81.4688Z" fill="#BDBCBD"/>
<path d="M154.057 88.2759L87.0625 84.0311L87.276 80.7134L154.271 84.9582L154.057 88.2759Z" fill="#BDBCBD"/>
<path d="M153.625 95.0833L86.6299 90.8385L86.8434 87.5156L153.838 91.7604L153.625 95.0833Z" fill="#BDBCBD"/>
<path d="M153.192 101.885L86.1973 97.6405L86.4056 94.3228L153.4 98.5675L153.192 101.885Z" fill="#BDBCBD"/>
<path d="M152.755 108.693L85.7598 104.448L85.9733 101.13L152.968 105.37L152.755 108.693Z" fill="#BDBCBD"/>
<path d="M152.323 115.5L85.3281 111.255L85.5417 107.932L152.536 112.177L152.323 115.5Z" fill="#BDBCBD"/>
<path d="M151.891 122.302L84.8906 118.057L85.1042 114.74L152.099 118.984L151.891 122.302Z" fill="#BDBCBD"/>
<path d="M151.453 129.109L84.458 124.865L84.6715 121.547L151.666 125.792L151.453 129.109Z" fill="#BDBCBD"/>
<path d="M151.02 135.917L84.0254 131.667L84.2389 128.349L151.234 132.594L151.02 135.917Z" fill="#BDBCBD"/>
<path d="M183.448 46.677L160.974 45.2499L162.333 23.9739L184.802 25.3958L183.448 46.677Z" fill="#6BC5BB"/>
<path d="M181.999 69.4062L159.525 67.9844L160.885 46.7031L183.354 48.1302L181.999 69.4062Z" fill="#183651"/>
<path d="M180.547 92.1406L158.078 90.7135L159.438 69.4375L181.906 70.8594L180.547 92.1406Z" fill="#F9A72B"/>
<path d="M179.099 114.87L156.63 113.448L157.989 92.1665L180.458 93.5884L179.099 114.87Z" fill="#648F16"/>
<path d="M177.65 137.599L155.182 136.177L156.536 114.901L179.005 116.323L177.65 137.599Z" fill="#6BC5BB"/>
<mask id="mask2_180_36" style="mask-type:luminance" maskUnits="userSpaceOnUse" x="35" y="91" width="116" height="85">
<path d="M35.6924 91.177H150.359V176H35.6924V91.177Z" fill="white"/>
</mask>
<g mask="url(#mask2_180_36)">
<path d="M73.5882 98.3593V91.8333H36.8382V175.969H149.927V98.3593H73.5882Z" fill="#CB7124"/>
</g>
<path d="M142.474 170.849H41.0049V100.167H142.474V170.849Z" fill="#C4C3C3"/>
<path d="M144.885 173.208H43.4111V102.526H144.885V173.208Z" fill="#DAD9D9"/>
<mask id="mask3_180_36" style="mask-type:luminance" maskUnits="userSpaceOnUse" x="46" y="104" width="104" height="72">
<path d="M46.3594 104.51H149.026V176H46.3594V104.51Z" fill="white"/>
</mask>
<g mask="url(#mask3_180_36)">
<path d="M147.906 175.969H46.4375V105.286H147.906V175.969Z" fill="white"/>
</g>
<mask id="mask4_180_36" style="mask-type:luminance" maskUnits="userSpaceOnUse" x="35" y="108" width="116" height="68">
<path d="M35.6924 108.51H150.359V176H35.6924V108.51Z" fill="white"/>
</mask>
<g mask="url(#mask4_180_36)">
<path d="M149.927 175.969H36.8382V109.828H149.927V175.969Z" fill="#F9A72B"/>
</g>
</svg>
