<svg width="30" height="70" viewBox="0 0 148 216" fill="none" xmlns="http://www.w3.org/2000/svg">
<mask id="mask0_130_176" style="mask-type:luminance" maskUnits="userSpaceOnUse" x="0" y="45" width="82" height="171">
<path d="M0 45.2551H81.3333V216H0V45.2551Z" fill="white"/>
</mask>
<g mask="url(#mask0_130_176)">
<path d="M25.0417 46.3437L23.7709 52.9582C20.3907 70.8385 16.9636 87.7395 13.5053 103.661L10.8855 115.047L4.5261 139.891L2.60422 148.37C0.807345 156.432 0.703178 163.396 2.28651 169.26C5.05735 176.943 10.6563 183.333 19.0782 188.427C26.9844 193.828 45.4688 203.047 74.5313 216.088C78.3699 179.333 80.5105 152.255 80.9532 134.859C81.3751 121.052 80.2084 109.521 77.448 100.266C76.4271 96.9739 75.3438 93.9062 74.198 91.0676L25.0417 46.3437Z" fill="#0B0A0A"/>
</g>
<mask id="mask1_130_176" style="mask-type:luminance" maskUnits="userSpaceOnUse" x="66" y="45" width="83" height="171">
<path d="M66.667 45.2551H148V216H66.667V45.2551Z" fill="white"/>
</mask>
<g mask="url(#mask1_130_176)">
<path d="M123.693 46.3437L124.964 52.9582C128.344 70.8385 131.766 87.7395 135.229 103.661L137.849 115.047L144.203 139.891L146.131 148.37C147.922 156.432 148.032 163.396 146.448 169.26C143.677 176.943 138.078 183.333 129.657 188.427C121.75 193.828 103.266 203.047 74.2034 216.088C70.3649 179.333 68.2242 152.255 67.7815 134.859C67.3597 121.052 68.5263 109.521 71.2815 100.266C72.3076 96.9739 73.3909 93.9062 74.5367 91.0676L123.693 46.3437Z" fill="#0B0A0A"/>
</g>
<mask id="mask2_130_176" style="mask-type:luminance" maskUnits="userSpaceOnUse" x="24" y="0" width="100" height="100">
<path d="M24 0H124V99.9219H24V0Z" fill="white"/>
</mask>
<g mask="url(#mask2_130_176)">
<path d="M123.958 49.5989L123.51 56.3229C121.365 69.8645 115.094 80.6979 104.698 88.8177C94.224 96.9323 81.8959 100.224 67.7084 98.6875C54.1667 96.5468 43.3334 90.276 35.2188 79.875C32.6146 76.5104 30.474 72.8489 28.7865 68.8854L26.6667 62.7708C25.5 58.5625 24.9115 54.1718 24.8959 49.5989C25.25 35.5625 30.0886 23.8854 39.4063 14.5677C48.724 5.24996 60.3959 0.411419 74.4271 0.057251C88.4584 0.411419 100.135 5.24996 109.453 14.5677C118.771 23.8854 123.609 35.5625 123.958 49.5989Z" fill="#0B0A0A"/>
<path d="M24.7709 49.5989L25.224 56.3229C27.3698 69.8645 33.6407 80.6979 44.0365 88.8177C54.5052 96.9323 66.8386 100.224 81.0261 98.6875C94.5677 96.5468 105.396 90.276 113.516 79.875C116.12 76.5104 118.26 72.8489 119.943 68.8854L122.068 62.7708C123.234 58.5625 123.823 54.1718 123.839 49.5989C123.484 35.5625 118.646 23.8854 109.328 14.5677C100.01 5.24996 88.3386 0.411419 74.3021 0.057251C60.2709 0.411419 48.599 5.24996 39.2813 14.5677C29.9636 23.8854 25.125 35.5625 24.7709 49.5989Z" fill="#0B0A0A"/>
</g>
<path d="M74.4166 22.1667L71.9739 23.8178C61.1093 30.8386 53.4061 37.5574 48.8593 43.974C43.8801 51.5678 41.5103 59.2397 41.7499 66.9845C41.7968 68.4532 41.9426 69.8595 42.1978 71.2084L42.6509 73.172C43.0051 74.448 43.4478 75.6563 43.9791 76.7917C45.6353 80.2032 47.8489 83.0209 50.6197 85.2501C54.5884 89.1511 62.5364 91.9949 74.4739 93.7865C75.5051 92.7709 79.9009 84.0001 87.6666 67.474L74.4166 22.1667Z" fill="#F6E1DB"/>
<path d="M74.3184 22.1667L76.7611 23.8178C87.6204 30.8386 95.3288 37.5574 99.8704 43.974C104.855 51.5678 107.225 59.2397 106.985 66.9845C106.938 68.4532 106.787 69.8595 106.537 71.2084L106.084 73.172C105.73 74.448 105.287 75.6563 104.751 76.7917C103.1 80.2032 100.886 83.0209 98.1152 85.2501C94.1465 89.1511 86.1934 91.9949 74.2559 93.7865C73.2298 92.7709 68.834 84.0001 61.0684 67.474L74.3184 22.1667Z" fill="#F6E1DB"/>
</svg>
