<svg width="50" height="100" viewBox="0 0 191 152" fill="none" xmlns="http://www.w3.org/2000/svg">
<mask id="mask0_130_195" style="mask-type:luminance" maskUnits="userSpaceOnUse" x="0" y="0" width="191" height="152">
<path d="M0 0H191V152H0V0Z" fill="white"/>
</mask>
<g mask="url(#mask0_130_195)">
<path d="M149.484 13.7865L150.333 16.5104L166.162 67.3646C155.146 70.7552 115.349 83.7188 100.698 98.3698L99.1824 99.0833V33.3854C101.708 31.0677 111.276 23.2031 126.776 20.8698C139.182 18.9896 146.245 15.6927 149.484 13.7865ZM64.2397 20.8698C79.7345 23.2031 89.3126 31.0677 91.8386 33.3854V99.0886L90.323 98.3802C75.6928 83.7292 35.8647 70.7552 24.849 67.3646C23.0261 66.7969 21.9897 66.5 21.9897 66.5L39.3178 12.2865C39.3178 12.2865 40.0001 12.875 41.5261 13.7865C44.7657 15.6927 51.8282 18.9896 64.2397 20.8698ZM29.0209 145.359C28.1095 145.359 22.198 141.38 26.8959 134.573C31.7188 127.589 38.9532 128.849 44.0053 124.708C47.9584 121.443 56.2501 107.922 67.2761 103.969V103.964L64.4949 102.594C56.8126 106.536 50.7449 109.641 50.5782 109.688C50.5678 109.698 50.5522 109.698 50.5313 109.698C49.9011 109.698 45.8126 106.99 49.0626 102.281C50.797 99.7552 53.0001 98.7865 55.1824 98.0365L14.5001 78.1458L8.10425 75.0208L10.3074 67.974L27.5938 12.4636L31.8438 13.7761L15.6355 64.4792L13.5574 70.9844L20.1303 72.8854C20.599 73.0156 21.1042 73.1667 21.6199 73.3229C21.6251 73.3229 21.6355 73.3281 21.6459 73.3281L86.3647 103.865C86.6928 104.219 86.9949 104.568 87.2709 104.922L91.8386 110.693V113.333C77.9688 120.776 29.6511 145.161 29.0886 145.349C29.073 145.349 29.0522 145.359 29.0209 145.359ZM164.115 134.573C168.823 141.38 162.912 145.359 161.99 145.359C161.969 145.359 161.943 145.349 161.932 145.349C161.37 145.161 113.052 120.776 99.1824 113.333V110.693L103.75 104.922C104.026 104.568 104.333 104.208 104.656 103.859L169.365 73.3281L169.396 73.3229L174.292 71.0052L156.708 14.5365L159.167 13.7761L163.417 12.4636L180.714 67.974L182.906 75.0208L176.516 78.1458L135.828 98.0365C138.021 98.7865 140.214 99.7552 141.948 102.281C145.208 106.99 141.115 109.698 140.479 109.698C140.458 109.698 140.453 109.698 140.432 109.688C140.271 109.641 134.198 106.536 126.526 102.594L123.734 103.964V103.969C134.76 107.922 143.052 121.443 147.016 124.708C152.057 128.849 159.302 127.589 164.115 134.573ZM189.281 73.0469L187.083 66L169.792 10.4896L167.823 4.14584L161.443 6.11459L157.146 7.44272L154.833 0.177094L147.359 7.23439C146.729 7.70834 140.573 12.0573 125.771 14.2969C109.917 16.6927 99.5105 24.3229 95.5157 27.75C91.5209 24.3333 81.1147 16.6927 65.2397 14.2969C50.448 12.0573 44.2813 7.70834 43.6511 7.23439L35.9792 0.00521851L33.797 7.42189L29.5678 6.11459L23.198 4.14584L21.2188 10.4896L3.92716 66.0104L1.73966 73.0469L0.041748 78.474L5.16675 80.9844L11.5522 84.1146L42.9584 99.4636C40.7657 103.193 40.547 107.266 42.4011 110.781C42.9584 111.833 43.7761 112.917 44.7865 113.839C44.2501 114.453 43.7449 115.063 43.2709 115.63C41.9272 117.234 40.4011 119.052 39.7449 119.589C38.6876 120.464 36.9792 121.026 35.0157 121.672C31.0261 122.99 25.5417 124.797 21.4011 130.813C18.0626 135.635 17.5209 141.01 19.9115 145.542C21.5522 148.656 25.1042 152.01 29.0209 152.01C29.7657 152.01 30.5001 151.885 31.198 151.656C32.5678 151.146 45.4897 144.63 59.474 137.5C73.4532 130.37 88.5105 122.62 94.1407 119.635H96.8699C108.151 125.594 157.12 150.661 159.828 151.656C160.521 151.885 161.245 152.01 161.99 152.01C165.906 152.01 169.464 148.656 171.109 145.542C173.5 141.01 172.948 135.635 169.615 130.807C165.479 124.797 159.995 122.99 155.995 121.672C154.031 121.026 152.333 120.464 151.255 119.583C150.62 119.052 149.094 117.234 147.74 115.63C147.266 115.063 146.76 114.453 146.234 113.839C147.234 112.917 148.057 111.833 148.609 110.781C150.469 107.276 150.245 103.203 148.057 99.4636L179.458 84.1146L185.854 80.9844L190.979 78.474L189.281 73.0469Z" fill="black"/>
</g>
</svg>
